<svg xmlns="http://www.w3.org/2000/svg" version="1.1" xmlns:xlink="http://www.w3.org/1999/xlink" xmlns:svgjs="http://svgjs.dev/svgjs" width="2000" height="837" viewBox="0 0 2000 837"><g transform="matrix(1,0,0,1,0.21333333333336668,-1.0761314331209633)"><svg viewBox="0 0 375 157" data-background-color="#f0cf90" preserveAspectRatio="xMidYMid meet" height="837" width="2000" xmlns="http://www.w3.org/2000/svg" xmlns:xlink="http://www.w3.org/1999/xlink"><g id="tight-bounds" transform="matrix(1,0,0,1,-0.03976000000000113,0.2018549999999948)"><svg viewBox="0 0 375.07953 156.59629" height="156.59629" width="375.07953"><g><svg></svg></g><g><svg viewBox="0 0 375.07953 156.59629" height="156.59629" width="375.07953"><g transform="matrix(1,0,0,1,-10.22024,-49.633970000000005)"><path d="M10.22 197.566v-147.932h375.08v147.932h-19.007v-4.968h14.039v-137.996h-365.144v137.996h217.233l0 4.968z" fill="#000000" fill-rule="nonzero" stroke="none" stroke-width="1" stroke-linecap="butt" stroke-linejoin="miter" stroke-miterlimit="10" stroke-dasharray="" stroke-dashoffset="0" font-family="none" font-weight="none" font-size="none" text-anchor="none" style="mix-blend-mode: normal" data-fill-palette-color="tertiary"></path><g><path d="M258.925 190.593v0 9c0 2.161-0.617 3.808-1.85 4.942-1.23 1.13-2.918 1.696-5.064 1.695v0c-0.888 0-1.591-0.064-2.11-0.191-0.518-0.13-0.911-0.255-1.177-0.372v0c-0.17-0.082-0.28-0.167-0.332-0.255v0c-0.076-0.118-0.159-0.292-0.25-0.523-0.094-0.23-0.182-0.482-0.264-0.754v0c-0.021-0.103-0.024-0.18-0.009-0.232v0c0.03-0.076 0.086-0.155 0.169-0.237v0c0.133-0.133 0.323-0.288 0.568-0.463 0.248-0.179 0.439-0.294 0.573-0.346v0c0.139-0.052 0.268-0.044 0.386 0.023v0c0.194 0.103 0.47 0.22 0.827 0.35 0.361 0.13 0.867 0.195 1.519 0.195v0c1.033 0 1.876-0.267 2.527-0.8 0.652-0.533 0.977-1.355 0.977-2.463v0-0.4h-0.045c-0.161 0.206-0.371 0.417-0.632 0.631-0.258 0.215-0.592 0.397-1.005 0.546-0.409 0.148-0.936 0.223-1.581 0.223v0c-1.115 0-2.03-0.242-2.746-0.728-0.715-0.485-1.241-1.153-1.578-2.004-0.336-0.852-0.505-1.821-0.504-2.91v0c0-1.191 0.197-2.259 0.591-3.204 0.391-0.949 1.049-1.699 1.973-2.251 0.924-0.549 2.19-0.823 3.795-0.822v0c0.964 0 1.773 0.07 2.428 0.209 0.655 0.139 1.203 0.314 1.645 0.522 0.445 0.206 0.835 0.412 1.169 0.619zM253.561 191.925v0c-0.858 0-1.512 0.289-1.964 0.868-0.452 0.576-0.677 1.471-0.677 2.686v0c0 1.9 0.785 2.85 2.354 2.851v0c0.615 0 1.085-0.126 1.41-0.378 0.324-0.252 0.568-0.57 0.731-0.954v0-4.582c-0.164-0.118-0.392-0.229-0.686-0.332-0.297-0.106-0.686-0.159-1.168-0.159zM267.489 201.171v0c-1.249 0-2.335-0.202-3.259-0.605-0.927-0.403-1.646-1.03-2.155-1.882-0.512-0.852-0.768-1.95-0.768-3.296v0c0-2.018 0.518-3.546 1.554-4.582 1.036-1.036 2.412-1.555 4.128-1.554v0c1.118 0 2.064 0.2 2.837 0.6 0.773 0.4 1.361 0.952 1.763 1.654 0.406 0.703 0.609 1.505 0.61 2.405v0c0 0.882-0.226 1.497-0.678 1.846-0.452 0.345-1.111 0.518-1.977 0.518v0h-4.76c0.058 0.764 0.336 1.346 0.837 1.746 0.5 0.4 1.179 0.6 2.036 0.6v0c0.682 0 1.227-0.103 1.637-0.31 0.412-0.203 0.699-0.364 0.859-0.481v0c0.142-0.103 0.302-0.152 0.477-0.146v0c0.142 0 0.344 0.029 0.605 0.086 0.264 0.055 0.524 0.156 0.782 0.305v0c0.185 0.097 0.277 0.23 0.277 0.4v0c0 0.097-0.018 0.233-0.055 0.409v0c-0.021 0.103-0.058 0.253-0.109 0.45-0.052 0.197-0.118 0.38-0.2 0.55v0c-0.045 0.082-0.115 0.159-0.209 0.232v0c-0.148 0.103-0.388 0.239-0.718 0.409-0.33 0.173-0.78 0.323-1.35 0.45-0.57 0.13-1.291 0.195-2.164 0.196zM264.762 194.002v0h3.618c0.376 0 0.564-0.174 0.564-0.523v0c0-0.524-0.164-0.967-0.491-1.327-0.33-0.358-0.824-0.536-1.482-0.537v0c-0.718 0-1.246 0.229-1.582 0.687-0.336 0.461-0.545 1.027-0.627 1.7zM279.131 201.171v0c-2.47 0-3.705-1.283-3.705-3.851v0-5.204h-1.255c-0.221 0-0.374-0.047-0.459-0.141-0.085-0.091-0.127-0.247-0.127-0.469v0-1.368c0-0.221 0.042-0.377 0.127-0.468 0.085-0.094 0.238-0.141 0.459-0.141v0h1.255v-1.787c0-0.179 0.036-0.315 0.109-0.409v0c0.312-0.409 0.768-0.85 1.369-1.323v0c0.103-0.073 0.195-0.109 0.277-0.109v0c0.088 0 0.176 0.036 0.263 0.109v0c0.318 0.245 0.586 0.474 0.805 0.687 0.218 0.215 0.406 0.427 0.564 0.636v0c0.073 0.094 0.109 0.23 0.109 0.409v0 1.787h1.964c0.221 0 0.374 0.047 0.459 0.141 0.088 0.091 0.132 0.247 0.132 0.468v0 1.368c0 0.221-0.044 0.377-0.132 0.469-0.085 0.094-0.238 0.141-0.459 0.141v0h-1.964v4.595c0 1.182 0.429 1.773 1.286 1.773v0c0.133 0 0.256-0.012 0.369-0.036 0.109-0.027 0.205-0.056 0.286-0.087v0c0.158-0.058 0.267-0.079 0.327-0.063 0.064 0.015 0.121 0.095 0.173 0.241v0l0.645 1.723c0.067 0.185 0.021 0.318-0.136 0.4v0c-0.109 0.052-0.377 0.148-0.805 0.291-0.424 0.145-1.07 0.218-1.936 0.218zM289.623 185.801v0c0-0.097 0.029-0.182 0.086-0.254 0.061-0.076 0.138-0.173 0.232-0.291v0c0.209-0.236 0.45-0.486 0.723-0.75 0.273-0.261 0.55-0.514 0.832-0.759v0c0.179-0.139 0.312-0.209 0.4-0.209v0c0.088 0 0.224 0.07 0.409 0.209v0c0.6 0.518 1.111 1.021 1.532 1.509v0c0.097 0.112 0.177 0.206 0.241 0.282 0.061 0.079 0.091 0.167 0.09 0.263v0c0 0.094-0.03 0.179-0.09 0.255-0.064 0.073-0.147 0.173-0.25 0.3v0c-0.2 0.227-0.433 0.473-0.701 0.736-0.267 0.264-0.541 0.514-0.822 0.75v0c-0.103 0.088-0.183 0.145-0.241 0.173-0.061 0.024-0.117 0.036-0.168 0.037v0c-0.052 0-0.105-0.012-0.16-0.037-0.058-0.027-0.145-0.085-0.263-0.173v0c-0.294-0.236-0.571-0.486-0.832-0.75-0.258-0.264-0.491-0.517-0.7-0.759v0c-0.094-0.118-0.171-0.212-0.232-0.282-0.058-0.073-0.086-0.156-0.086-0.25zM293.637 190.115v10.192c0 0.221-0.045 0.374-0.137 0.459-0.094 0.085-0.252 0.127-0.472 0.127v0h-2.287c-0.221 0-0.379-0.042-0.473-0.127-0.091-0.085-0.136-0.238-0.136-0.459v0-10.192c0-0.221 0.045-0.374 0.136-0.459 0.094-0.085 0.252-0.127 0.473-0.127v0h2.287c0.221 0 0.379 0.042 0.472 0.127 0.091 0.085 0.136 0.238 0.137 0.459zM301.151 201.171v0c-2.47 0-3.705-1.283-3.705-3.851v0-5.204h-1.255c-0.221 0-0.374-0.047-0.459-0.141-0.088-0.091-0.132-0.247-0.132-0.469v0-1.368c0-0.221 0.044-0.377 0.132-0.468 0.085-0.094 0.238-0.141 0.459-0.141v0h1.255v-1.787c0-0.179 0.036-0.315 0.109-0.409v0c0.312-0.409 0.767-0.85 1.364-1.323v0c0.106-0.073 0.199-0.109 0.277-0.109v0c0.091 0 0.18 0.036 0.268 0.109v0c0.318 0.245 0.586 0.474 0.805 0.687 0.218 0.215 0.405 0.427 0.559 0.636v0c0.076 0.094 0.114 0.23 0.114 0.409v0 1.787h1.964c0.221 0 0.374 0.047 0.459 0.141 0.085 0.091 0.127 0.247 0.127 0.468v0 1.368c0 0.221-0.042 0.377-0.127 0.469-0.085 0.094-0.238 0.141-0.459 0.141v0h-1.964v4.595c0 1.182 0.429 1.773 1.286 1.773v0c0.133 0 0.256-0.012 0.368-0.036 0.109-0.027 0.205-0.056 0.287-0.087v0c0.155-0.058 0.264-0.079 0.327-0.063 0.064 0.015 0.121 0.095 0.173 0.241v0l0.641 1.723c0.067 0.185 0.023 0.318-0.132 0.4v0c-0.109 0.052-0.377 0.148-0.805 0.291-0.424 0.145-1.07 0.218-1.936 0.218zM316.557 192.116v8.191c0 0.221-0.047 0.374-0.141 0.459-0.091 0.085-0.247 0.127-0.469 0.127v0h-2.286c-0.224 0-0.382-0.042-0.473-0.127-0.094-0.085-0.141-0.238-0.141-0.459v0-8.191h-1.309c-0.221 0-0.374-0.047-0.459-0.141-0.085-0.091-0.127-0.247-0.127-0.469v0-1.368c0-0.221 0.042-0.377 0.127-0.468 0.085-0.094 0.238-0.141 0.459-0.141v0h1.309v-1.409c0-0.894 0.18-1.664 0.541-2.31 0.358-0.642 0.842-1.138 1.455-1.486 0.609-0.349 1.288-0.523 2.036-0.523v0c0.345 0 0.609 0.015 0.791 0.046 0.182 0.03 0.317 0.074 0.405 0.132v0c0.288 0.164 0.688 0.497 1.2 1v0c0.082 0.088 0.123 0.177 0.123 0.268v0c0 0.094-0.064 0.205-0.191 0.332v0c-0.221 0.23-0.432 0.424-0.632 0.581-0.2 0.161-0.362 0.28-0.486 0.36v0c-0.112 0.067-0.211 0.106-0.296 0.118-0.085 0.012-0.202 0.018-0.35 0.018v0c-0.724 0-1.086 0.555-1.086 1.664v0 1.209h2.009c0.221 0 0.374 0.047 0.459 0.141 0.085 0.091 0.127 0.247 0.127 0.468v0 1.368c0 0.221-0.042 0.377-0.127 0.469-0.085 0.094-0.238 0.141-0.459 0.141v0zM323.771 201.171v0c-1.088 0-1.952-0.305-2.591-0.914-0.642-0.612-0.964-1.455-0.964-2.527v0c0-0.555 0.103-1.07 0.309-1.546 0.203-0.479 0.558-0.902 1.064-1.268 0.506-0.367 1.217-0.661 2.132-0.882 0.912-0.221 2.079-0.35 3.5-0.387v0c0-0.673-0.168-1.158-0.504-1.454-0.336-0.297-0.841-0.445-1.514-0.446v0c-0.609 0-1.105 0.105-1.487 0.314-0.385 0.206-0.626 0.345-0.722 0.418v0c-0.103 0.091-0.229 0.124-0.378 0.1v0c-0.2-0.027-0.414-0.079-0.641-0.154-0.224-0.073-0.465-0.158-0.723-0.255v0c-0.039-0.015-0.08-0.039-0.122-0.073-0.045-0.033-0.071-0.083-0.078-0.15v0c0-0.036 0.003-0.082 0.01-0.136 0.006-0.058 0.024-0.159 0.054-0.305v0c0.03-0.148 0.076-0.332 0.136-0.55 0.058-0.218 0.112-0.386 0.164-0.504v0c0.067-0.127 0.177-0.245 0.332-0.355v0c0.127-0.106 0.509-0.273 1.146-0.5 0.636-0.23 1.558-0.345 2.763-0.345v0c3.321 0 4.982 1.617 4.983 4.85v0 6.282c0 0.139-0.039 0.259-0.119 0.359-0.076 0.1-0.206 0.15-0.391 0.15v0h-1.668c-0.118 0-0.223-0.017-0.314-0.05-0.094-0.033-0.182-0.098-0.263-0.195v0l-0.687-0.886h-0.077c-0.339 0.497-0.796 0.856-1.368 1.077-0.576 0.221-1.236 0.332-1.982 0.332zM324.989 198.598v0c0.682 0 1.197-0.174 1.546-0.523 0.345-0.349 0.567-0.708 0.663-1.077v0-1.232c-1.027 0-1.799 0.08-2.313 0.241-0.515 0.158-0.858 0.364-1.028 0.618-0.17 0.258-0.255 0.533-0.254 0.827v0c0 0.43 0.133 0.729 0.4 0.896 0.267 0.167 0.596 0.25 0.986 0.25zM336.799 201.171v0c-0.791 0-1.447-0.067-1.968-0.2-0.524-0.133-0.943-0.294-1.255-0.482-0.315-0.188-0.562-0.361-0.741-0.518v0c-0.133-0.124-0.147-0.264-0.041-0.419v0l1.132-1.677c0.161-0.236 0.345-0.252 0.555-0.045v0c0.212 0.209 0.502 0.411 0.868 0.604 0.367 0.197 0.824 0.295 1.373 0.296v0c0.488 0 0.889-0.083 1.205-0.25 0.312-0.167 0.468-0.409 0.468-0.728v0c0-0.221-0.07-0.403-0.209-0.545-0.139-0.139-0.386-0.283-0.741-0.432-0.358-0.148-0.855-0.336-1.491-0.564v0c-0.939-0.342-1.649-0.753-2.128-1.232-0.482-0.482-0.723-1.185-0.723-2.109v0c0-0.852 0.235-1.544 0.705-2.077 0.47-0.53 1.073-0.92 1.809-1.169 0.736-0.248 1.505-0.373 2.305-0.372v0c1.012 0 1.723 0.094 2.132 0.281 0.412 0.188 0.677 0.335 0.795 0.441v0c0.112 0.094 0.189 0.205 0.232 0.332v0c0.097 0.288 0.171 0.668 0.223 1.141v0c0.03 0.276-0.039 0.458-0.209 0.546v0c-0.091 0.052-0.232 0.108-0.423 0.168-0.191 0.058-0.383 0.109-0.577 0.155-0.191 0.042-0.335 0.064-0.432 0.063v0c-0.03 0-0.062-0.009-0.095-0.027-0.033-0.018-0.091-0.064-0.173-0.136v0c-0.097-0.097-0.261-0.208-0.491-0.332-0.233-0.127-0.555-0.191-0.964-0.191v0c-0.397 0-0.732 0.065-1.004 0.195-0.27 0.13-0.405 0.358-0.405 0.682v0c0 0.355 0.173 0.621 0.518 0.8 0.342 0.176 0.911 0.405 1.705 0.687v0c0.621 0.215 1.162 0.45 1.623 0.704 0.464 0.255 0.821 0.588 1.073 1 0.252 0.409 0.377 0.962 0.377 1.659v0c0 0.903-0.245 1.63-0.737 2.182-0.494 0.549-1.124 0.947-1.891 1.196-0.764 0.248-1.564 0.373-2.4 0.373zM348.486 201.171v0c-2.473 0-3.709-1.283-3.709-3.851v0-5.204h-1.255c-0.221 0-0.374-0.047-0.459-0.141-0.085-0.091-0.127-0.247-0.127-0.469v0-1.368c0-0.221 0.042-0.377 0.127-0.468 0.085-0.094 0.238-0.141 0.459-0.141v0h1.255v-1.787c0-0.179 0.038-0.315 0.114-0.409v0c0.309-0.409 0.764-0.85 1.363-1.323v0c0.103-0.073 0.195-0.109 0.278-0.109v0c0.088 0 0.177 0.036 0.268 0.109v0c0.318 0.245 0.586 0.474 0.805 0.687 0.218 0.215 0.405 0.427 0.559 0.636v0c0.073 0.094 0.109 0.23 0.109 0.409v0 1.787h1.964c0.224 0 0.379 0.047 0.463 0.141 0.085 0.091 0.127 0.247 0.128 0.468v0 1.368c0 0.221-0.042 0.377-0.128 0.469-0.085 0.094-0.239 0.141-0.463 0.141v0h-1.964v4.595c0 1.182 0.43 1.773 1.291 1.773v0c0.13 0 0.252-0.012 0.363-0.036 0.112-0.027 0.209-0.056 0.291-0.087v0c0.155-0.058 0.264-0.079 0.328-0.063 0.061 0.015 0.117 0.095 0.168 0.241v0l0.645 1.723c0.067 0.185 0.023 0.318-0.131 0.4v0c-0.112 0.052-0.38 0.148-0.805 0.291-0.427 0.145-1.073 0.218-1.937 0.218z" fill="#000000" fill-rule="nonzero" stroke="none" stroke-width="1" stroke-linecap="butt" stroke-linejoin="miter" stroke-miterlimit="10" stroke-dasharray="" stroke-dashoffset="0" font-family="none" font-weight="none" font-size="none" text-anchor="none" style="mix-blend-mode: normal" data-fill-palette-color="secondary" id="text-1"></path></g></g><g transform="matrix(1,0,0,1,29.33176499999999,50.754725172987364)"><svg viewBox="0 0 316.416 55.08683965402528" height="55.08683965402528" width="316.416"><g><svg viewBox="0 0 316.416 55.08683965402528" height="55.08683965402528" width="316.416"><g><svg viewBox="0 0 316.416 55.08683965402528" height="55.08683965402528" width="316.416"><g id="textblocktransform"><svg viewBox="0 0 316.416 55.08683965402528" height="55.08683965402528" width="316.416" id="textblock"><g><svg viewBox="0 0 316.416 55.08683965402528" height="55.08683965402528" width="316.416"><g transform="matrix(1,0,0,1,0,0)"><svg width="316.416" viewBox="4 -38.7 223.48000000000002 39.25" height="55.08683965402528" data-palette-color="#000000"><g class="wordmark-text-0" data-fill-palette-color="primary" id="text-0"><path d="M22.1-34.5L21.55-29.15 10.9-29.15 10.6-19.95 20.15-19.95 19.6-14.65 10.45-14.65 10.4-13 11 0 4 0 4.6-12.15 4-34.5 22.1-34.5ZM30 0Q27.05 0 25.17-1.88 23.3-3.75 23.3-6.93 23.3-10.1 26.2-12.43 29.1-14.75 33.25-14.75L33.25-14.75 36.65-14.75 36.65-15.6Q36.65-18.05 35.65-18.95 34.65-19.85 31.9-19.85L31.9-19.85Q30.75-19.85 29.17-19.38 27.6-18.9 25.65-17.9L25.65-17.9 24.2-21.85Q26.35-23.35 29.42-24.55 32.5-25.75 34.5-25.75L34.5-25.75Q42.35-25.75 42.35-18.15L42.35-18.15 42.35-8.35Q42.35-5.55 44.1-2.1L44.1-2.1 38.8 0.15Q37.55-2.25 36.95-4.15L36.95-4.15Q34.2 0 30 0L30 0ZM32.1-5.1L32.1-5.1Q34.1-5.1 36.65-7.15L36.65-7.15 36.65-10.5Q34-11.1 32.35-11.1L32.35-11.1Q29.2-11.1 29.2-8.3L29.2-8.3Q29.2-6.85 30-5.98 30.8-5.1 32.1-5.1ZM68.95-33.5L76.05-34.75 75.34-13 75.95 0 68.95 0 69.55-12.15 69.45-14.8 56-14.8 55.95-13 56.55 0 49.55 0 50.15-12.15 49.55-33.5 56.65-34.75 56.15-20.1 69.3-20.1 68.95-33.5ZM96.14-4.9L96.14-4.9Q92.24 0 89.39 0L89.39 0Q85.84 0 83.57-2.9 81.29-5.8 81.29-10.35L81.29-10.35Q81.29-16.6 84.77-20.9 88.24-25.2 93.29-25.2L93.29-25.2 96.09-24.8 96.09-25.75 95.49-37.45 102.34-38.7 101.69-13 101.69-8.6Q101.69-5.6 103.19-1.7L103.19-1.7 97.79 0.55Q96.34-2.45 96.14-4.9ZM86.89-12.95Q86.89-9.75 88.07-7.95 89.24-6.15 91.47-6.15 93.69-6.15 96.09-7.95L96.09-7.95 96.09-18.75Q93.09-19.35 91.64-19.35L91.64-19.35Q89.39-19.35 88.14-17.75 86.89-16.15 86.89-12.95Z" fill="#000000" data-fill-palette-color="primary"></path><path d="M111.54-4.55L115.44-9.95Q119.69-5.7 123.94-5.7L123.94-5.7Q126.14-5.7 127.46-6.73 128.79-7.75 128.79-9.38 128.79-11 127.19-12.13 125.59-13.25 123.31-14.1 121.04-14.95 118.79-16.03 116.54-17.1 114.94-19.1 113.34-21.1 113.34-23.95L113.34-23.95Q113.34-28.45 117.09-31.73 120.84-35 125.99-35L125.99-35Q128.34-35 130.54-34.5 132.74-34 134.79-33.05L134.79-33.05 131.39-25.75Q129.99-26.85 127.56-27.78 125.14-28.7 123.31-28.7 121.49-28.7 120.36-27.83 119.24-26.95 119.24-25.5 119.24-24.05 120.84-22.93 122.44-21.8 124.71-20.95 126.99-20.1 129.26-19.07 131.54-18.05 133.14-16.05 134.74-14.05 134.74-11.2L134.74-11.2Q134.74-6.5 130.99-2.98 127.24 0.55 122.24 0.55L122.24 0.55Q118.49 0.55 115.59-1.25L115.59-1.25Q113.04-2.8 111.99-4L111.99-4 111.54-4.55ZM137.99-24.2L140.89-24.2 140.89-29.65 147.64-30.95 146.99-24.2 153.04-24.2 152.49-20.1 146.79-20.1 146.54-9.65Q146.54-7.3 146.99-6.53 147.44-5.75 148.64-5.75 149.84-5.75 151.84-6.3L151.84-6.3 152.14-2.75Q148.84 0 146.34 0 143.84 0 142.24-1.83 140.64-3.65 140.64-6.6L140.64-6.6 140.94-12.2 140.89-20.1 137.44-20.1 137.99-24.2ZM171.78-35L171.78-35Q177.68-35 181.51-30.5 185.33-26 185.33-19.05L185.33-19.05Q185.33-10.25 180.78-4.85 176.23 0.55 168.83 0.55L168.83 0.55Q163.08 0.55 159.18-4.08 155.28-8.7 155.28-15.5L155.28-15.5Q155.28-24 159.93-29.5 164.58-35 171.78-35ZM178.53-16.25L178.53-16.25Q178.53-28.9 170.23-28.9L170.23-28.9Q166.43-28.9 164.26-26.08 162.08-23.25 162.08-17.63 162.08-12 164.41-8.38 166.73-4.75 170.56-4.75 174.38-4.75 176.46-7.83 178.53-10.9 178.53-16.25ZM189.18-24.15L189.18-24.15 195.23-25.45Q195.68-21.6 195.83-18.15L195.83-18.15Q200.38-25.2 204.38-25.2L204.38-25.2 203.83-17.4Q200.93-17.4 199.26-16.88 197.58-16.35 195.83-14.8L195.83-14.8 195.83-13 196.38-1.25 189.68 0 190.28-12.15Q190.08-18.85 189.18-24.15ZM226.93 0L208.63 0 209.23-12.15 208.63-34.5 227.38-34.5 226.83-29.15 215.58-29.15 215.28-20.3 225.28-20.3 224.73-15 215.08-15 215.03-13 215.38-5.3 227.48-5.3 226.93 0Z" fill="#000000" data-fill-palette-color="secondary"></path></g></svg></g></svg></g></svg></g></svg></g></svg></g></svg></g></svg></g><defs></defs></svg><rect width="375.07953" height="156.59629" fill="none" stroke="none" visibility="hidden"></rect></g></svg></g></svg>